<svg width="80" height="38" viewBox="0 0 80 38" fill="none" xmlns="http://www.w3.org/2000/svg">
<path d="M29.7871 32.6055C28.4688 34.0703 26.54 35.2503 24.001 36.1455C21.4619 37.0407 18.6787 37.4883 15.6514 37.4883C10.9964 37.4883 7.27734 36.0641 4.49414 33.2158C1.71094 30.3675 0.22168 26.4043 0.0263672 21.3262L0.00195312 18.25C0.00195312 14.7507 0.620443 11.6989 1.85742 9.09473C3.0944 6.47428 4.86035 4.46419 7.15527 3.06445C9.46647 1.64844 12.1357 0.94043 15.1631 0.94043C19.5902 0.94043 23.0244 1.95768 25.4658 3.99219C27.9235 6.01042 29.3558 9.02962 29.7627 13.0498H21.5107C21.2178 11.0641 20.583 9.64811 19.6064 8.80176C18.6299 7.9554 17.2464 7.53223 15.4561 7.53223C13.3076 7.53223 11.6475 8.44368 10.4756 10.2666C9.30371 12.0895 8.70964 14.6937 8.69336 18.0791V20.2275C8.69336 23.7757 9.29557 26.445 10.5 28.2354C11.7207 30.0094 13.6331 30.8965 16.2373 30.8965C18.4671 30.8965 20.1273 30.4001 21.2178 29.4072V23.8896H15.2607V18.0059H29.7871V32.6055ZM67.0566 23.7432L71.1338 1.45312H79.6299L72.0859 37H63.1992L58.4385 16.7363L53.7754 37H44.9131L37.3447 1.45312H45.8652L49.9424 23.7432L54.8252 1.45312H62.1006L67.0566 23.7432Z" fill="white"/>
</svg>
